<?xml version="1.0" encoding="UTF-8"?>
<svg id="_Слой_1" data-name="Слой_1" xmlns="http://www.w3.org/2000/svg" viewBox="0 0 100 100">
  <path d="M76.73,83.91c.2,3.46.4,6.8.6,10.26-.32,0-.61,0-.89,0-5,0-10,.04-15-.02-5-.06-8.65-2.32-10.76-6.91-.06-.13-.12-.26-.24-.51-.19.35-.33.61-.47.88-2.05,4.11-5.38,6.39-9.96,6.51-5.36.14-10.73.04-16.1.04-.14,0-.28-.04-.44-.06.2-3.4.4-6.76.6-10.22-.99,0-1.92,0-2.84,0-1.1,0-2.21,0-3.31,0-1.79-.01-3.01-1.15-3.11-2.94-.04-.73-.02-1.47-.02-2.21,0-18.97,0-37.94,0-56.91,0-4.52,2.36-7.94,6.63-9.5,5.72-2.1,11.47-4.14,17.2-6.21.21-.07.42-.12.8-.24,2.32,9.43,4.62,18.81,6.93,28.2.06,0,.12,0,.18-.01.19-1.37.39-2.74.56-4.11.45-3.62.88-7.25,1.35-10.87.07-.56-.03-.98-.41-1.4-.61-.69-1.18-1.43-1.77-2.15,1.41-1.39,2.78-2.73,4.12-4.05,1.31,1.3,2.67,2.65,4.11,4.08-.51.63-1.06,1.33-1.65,2.01-.39.45-.55.9-.47,1.53.64,4.91,1.24,9.82,1.85,14.73,0,.07.04.14.21.25,2.31-9.38,4.63-18.75,6.96-28.23.78.27,1.49.5,2.19.76,5.25,1.9,10.5,3.78,15.74,5.7,4.34,1.59,6.68,4.99,6.68,9.61,0,19.46,0,38.92-.01,58.38,0,.6-.09,1.23-.3,1.79-.42,1.17-1.41,1.77-2.69,1.78-1.79,0-3.58,0-5.37,0-.26,0-.53.02-.9.04Z"/>
</svg>